<svg width="20" height="20" viewBox="0 0 20 20" fill="none" xmlns="http://www.w3.org/2000/svg">
<path fill-rule="evenodd" clip-rule="evenodd" d="M0.400391 9.9999C0.400391 4.69797 4.69846 0.399902 10.0004 0.399902C15.3023 0.399902 19.6004 4.69797 19.6004 9.9999C19.6004 15.3018 15.3023 19.5999 10.0004 19.5999C4.69846 19.5999 0.400391 15.3018 0.400391 9.9999ZM10.0004 1.9999C5.58211 1.9999 2.00039 5.58162 2.00039 9.9999C2.00039 14.4182 5.58211 17.9999 10.0004 17.9999C14.4187 17.9999 18.0004 14.4182 18.0004 9.9999C18.0004 5.58162 14.4187 1.9999 10.0004 1.9999Z" fill="#0075FF"/>
<path fill-rule="evenodd" clip-rule="evenodd" d="M10.1613 5.19995C10.6032 5.19995 10.9613 5.55812 10.9613 5.99995V14.16C10.9613 14.6018 10.6032 14.96 10.1613 14.96C9.7195 14.96 9.36133 14.6018 9.36133 14.16V5.99995C9.36133 5.55812 9.7195 5.19995 10.1613 5.19995Z" fill="#0075FF"/>
<path fill-rule="evenodd" clip-rule="evenodd" d="M15.1211 9.83979C15.1211 10.2816 14.7629 10.6398 14.3211 10.6398L6.16109 10.6398C5.71927 10.6398 5.36109 10.2816 5.36109 9.83979C5.36109 9.39797 5.71927 9.03979 6.16109 9.03979L14.3211 9.03979C14.7629 9.03979 15.1211 9.39797 15.1211 9.83979Z" fill="#0075FF"/>
</svg>
