<svg width="32" height="32" viewBox="0 0 32 32" fill="none" xmlns="http://www.w3.org/2000/svg">
<path fill-rule="evenodd" clip-rule="evenodd" d="M6.40039 15.9999C6.40039 10.698 10.6985 6.3999 16.0004 6.3999C21.3023 6.3999 25.6004 10.698 25.6004 15.9999C25.6004 21.3018 21.3023 25.5999 16.0004 25.5999C10.6985 25.5999 6.40039 21.3018 6.40039 15.9999ZM16.0004 7.9999C11.5821 7.9999 8.00039 11.5816 8.00039 15.9999C8.00039 20.4182 11.5821 23.9999 16.0004 23.9999C20.4187 23.9999 24.0004 20.4182 24.0004 15.9999C24.0004 11.5816 20.4187 7.9999 16.0004 7.9999Z" fill="#0075FF"/>
<path fill-rule="evenodd" clip-rule="evenodd" d="M16.1613 11.2C16.6032 11.2 16.9613 11.5581 16.9613 12V20.16C16.9613 20.6018 16.6032 20.96 16.1613 20.96C15.7195 20.96 15.3613 20.6018 15.3613 20.16V12C15.3613 11.5581 15.7195 11.2 16.1613 11.2Z" fill="#0075FF"/>
<path fill-rule="evenodd" clip-rule="evenodd" d="M21.1211 15.8398C21.1211 16.2816 20.7629 16.6398 20.3211 16.6398L12.1611 16.6398C11.7193 16.6398 11.3611 16.2816 11.3611 15.8398C11.3611 15.398 11.7193 15.0398 12.1611 15.0398L20.3211 15.0398C20.7629 15.0398 21.1211 15.398 21.1211 15.8398Z" fill="#0075FF"/>
</svg>
