<svg width="20" height="10" viewBox="0 0 20 10" fill="none" xmlns="http://www.w3.org/2000/svg">
<path fill-rule="evenodd" clip-rule="evenodd" d="M19 6.73245C19.5978 6.38664 20 5.7403 20 5.00001C20 4.25973 19.5978 3.61339 19 3.26758V6.73245Z" fill="#333333" fill-opacity="0.3"/>
<rect width="18" height="10" rx="3" fill="#333333" fill-opacity="0.3"/>
<rect width="7" height="10" fill="#FFD600"/>
<path d="M6.62216 8.07955C6.19792 8.07955 5.82008 8.00663 5.48864 7.8608C5.15909 7.71307 4.89867 7.51042 4.70739 7.25284C4.51799 6.99337 4.42045 6.69413 4.41477 6.35511H5.65341C5.66098 6.49716 5.70739 6.62216 5.79261 6.73011C5.87973 6.83617 5.99527 6.91856 6.1392 6.97727C6.28314 7.03598 6.44508 7.06534 6.625 7.06534C6.8125 7.06534 6.97822 7.0322 7.12216 6.96591C7.2661 6.89962 7.37879 6.80777 7.46023 6.69034C7.54167 6.57292 7.58239 6.4375 7.58239 6.28409C7.58239 6.12879 7.53883 5.99148 7.4517 5.87216C7.36648 5.75095 7.24337 5.65625 7.08239 5.58807C6.9233 5.51989 6.7339 5.4858 6.5142 5.4858H5.97159V4.58239H6.5142C6.69981 4.58239 6.86364 4.55019 7.00568 4.4858C7.14962 4.4214 7.26136 4.33239 7.34091 4.21875C7.42045 4.10322 7.46023 3.96875 7.46023 3.81534C7.46023 3.66951 7.42519 3.54167 7.35511 3.43182C7.28693 3.32008 7.19034 3.23295 7.06534 3.17045C6.94223 3.10795 6.7983 3.0767 6.63352 3.0767C6.46686 3.0767 6.31439 3.10701 6.17614 3.16761C6.03788 3.22633 5.92708 3.31061 5.84375 3.42045C5.76042 3.5303 5.71591 3.65909 5.71023 3.80682H4.53125C4.53693 3.47159 4.63258 3.17614 4.81818 2.92045C5.00379 2.66477 5.25379 2.46496 5.56818 2.32102C5.88447 2.17519 6.24148 2.10227 6.6392 2.10227C7.04072 2.10227 7.39205 2.17519 7.69318 2.32102C7.99432 2.46686 8.22822 2.66383 8.39489 2.91193C8.56345 3.15814 8.64678 3.43466 8.64489 3.74148C8.64678 4.06723 8.54545 4.33902 8.34091 4.55682C8.13826 4.77462 7.87405 4.91288 7.5483 4.97159V5.01705C7.97633 5.07197 8.30208 5.22064 8.52557 5.46307C8.75095 5.7036 8.86269 6.00473 8.8608 6.36648C8.86269 6.69792 8.76705 6.99242 8.57386 7.25C8.38258 7.50758 8.11837 7.71023 7.78125 7.85795C7.44413 8.00568 7.05777 8.07955 6.62216 8.07955ZM9.65696 6.97727V6.00852L12.0859 2.18182H12.9212V3.52273H12.4268L10.8956 5.94602V5.99148H14.3473V6.97727H9.65696ZM12.4496 8V6.68182L12.4723 6.25284V2.18182H13.6257V8H12.4496Z" fill="#333333"/>
</svg>
