<?xml version="1.0" encoding="UTF-8"?>
<svg id="Laag_1" data-name="Laag 1" xmlns="http://www.w3.org/2000/svg" viewBox="0 0 128 128">
  <path d="M16,116h96c2.21,0,4-1.79,4-4v-38c0-2.21-1.79-4-4-4h-8c-2.21,0-4,1.79-4,4v26H28v-26c0-2.21-1.79-4-4-4h-8c-2.21,0-4,1.79-4,4v38c0,2.21,1.79,4,4,4Z" fill="#000" stroke-width="0"/>
  <path d="M89.89,37.23l-23-24c-.74-.78-1.77-1.22-2.84-1.23-1.07.01-2.11.41-2.87,1.17l-24,24c-1.14,1.14-1.49,2.86-.87,4.36s2.08,2.47,3.7,2.47h12s0,44,0,44c0,2.21,1.79,4,4,4h16c2.21,0,4-1.79,4-4v-44s11,0,11,0c1.6,0,3.05-.96,3.68-2.43.63-1.47.32-3.18-.79-4.34Z" fill="#000" stroke-width="0"/>
</svg>