<?xml version="1.0" encoding="UTF-8"?>
<svg id="Laag_1" data-name="Laag 1" xmlns="http://www.w3.org/2000/svg" viewBox="0 0 114.17 116.64">
  <defs>
    <style>
      .cls-1 {
        fill: #1d1d1b;
        stroke: #1d1d1b;
        stroke-miterlimit: 10;
      }
    </style>
  </defs>
  <g>
    <rect class="cls-1" x="46.7" y="35.7" width="19.82" height="62.4"/>
    <path class="cls-1" d="M56.29,35.46c10.14,0,20.08.08,29.8.24-5.02-5.6-10.04-11.21-15.06-16.81-4.81-6.03-9.61-12.06-14.42-18.09-4.73,5.86-9.45,11.72-14.18,17.59-5.1,5.77-10.21,11.54-15.31,17.31,9.52-.15,19.25-.24,29.17-.24Z"/>
  </g>
  <g>
    <rect class="cls-1" x=".5" y="104.98" width="113.17" height="11.16"/>
    <rect class="cls-1" x="-10.86" y="82.45" width="33.89" height="11.16" transform="translate(-81.95 94.11) rotate(-90)"/>
    <rect class="cls-1" x="91.14" y="82.45" width="33.89" height="11.16" transform="translate(20.06 196.12) rotate(-90)"/>
  </g>
</svg>