<svg xmlns="http://www.w3.org/2000/svg" viewBox="0 0 128 128">
  <path d="M63,52c-1.85,0-3.6.43-5.16,1.18.72.72,1.16,1.72,1.16,2.82,0,2.21-1.79,4-4,4-1.1,0-2.09-.44-2.82-1.16-.75,1.57-1.18,3.31-1.18,5.16,0,6.62,5.38,12,12,12s12-5.38,12-12-5.38-12-12-12Z" fill="#000"/>
  <path d="M114.32,61.77c-.93-1.38-23-33.77-51.32-33.77S12.61,60.39,11.68,61.77c-.91,1.35-.91,3.11,0,4.46.93,1.38,23,33.77,51.32,33.77s50.39-32.39,51.32-33.77c.91-1.35.91-3.11,0-4.46ZM63,88c-13.23,0-24-10.77-24-24s10.77-24,24-24,24,10.77,24,24-10.77,24-24,24Z" fill="#000"/>
</svg>