<svg width="24" height="24" viewBox="0 0 24 24" fill="none" xmlns="http://www.w3.org/2000/svg">
<path d="M11.8125 9.75C11.4656 9.75 11.1375 9.83063 10.845 9.97125C10.98 10.1063 11.0625 10.2937 11.0625 10.5C11.0625 10.9144 10.7269 11.25 10.3125 11.25C10.1062 11.25 9.92063 11.1675 9.78375 11.0325C9.64313 11.3269 9.5625 11.6531 9.5625 12C9.5625 13.2413 10.5712 14.25 11.8125 14.25C13.0538 14.25 14.0625 13.2413 14.0625 12C14.0625 10.7587 13.0538 9.75 11.8125 9.75Z" fill="#777777"/>
<path d="M21.4355 11.5819C21.2611 11.3231 17.123 5.25 11.813 5.25C6.50297 5.25 2.36484 11.3231 2.19047 11.5819C2.01984 11.835 2.01984 12.165 2.19047 12.4181C2.36484 12.6769 6.50297 18.75 11.813 18.75C17.123 18.75 21.2611 12.6769 21.4355 12.4181C21.6061 12.165 21.6061 11.835 21.4355 11.5819ZM11.813 16.5C9.33234 16.5 7.31297 14.4806 7.31297 12C7.31297 9.51937 9.33234 7.5 11.813 7.5C14.2936 7.5 16.313 9.51937 16.313 12C16.313 14.4806 14.2936 16.5 11.813 16.5Z" fill="#777777"/>
</svg>
