<svg width="112" height="20" viewBox="0 0 112 20" fill="none" xmlns="http://www.w3.org/2000/svg">
<g clip-path="url(#clip0_147_1265)">
<path d="M98.5129 19.6677H102.24V13.6416L107.44 19.6677H112L105.946 12.7231L111.118 6.70204H106.967L102.24 12.2519V0L98.5129 0.487651V19.6677ZM89.9193 6.36978C85.7818 6.36978 82.9084 9.1504 82.9084 13.183C82.9084 17.2156 85.7818 19.9962 89.9193 19.9962C94.0568 19.9962 96.9302 17.2156 96.9302 13.183C96.9302 9.1504 94.0568 6.36978 89.9193 6.36978ZM89.9193 16.8214C88.0029 16.8214 86.6895 15.3408 86.6895 13.183C86.6895 11.0252 88.0029 9.54457 89.9193 9.54457C91.8358 9.54457 93.1492 11.0252 93.1492 13.183C93.1492 15.3408 91.8358 16.8214 89.9193 16.8214ZM74.7737 6.36978C70.6362 6.36978 67.7628 9.1504 67.7628 13.183C67.7628 17.2156 70.6362 19.9962 74.7737 19.9962C78.9112 19.9962 81.7846 17.2156 81.7846 13.183C81.7846 9.1504 78.9112 6.36978 74.7737 6.36978ZM74.7737 16.8214C72.8573 16.8214 71.5438 15.3408 71.5438 13.183C71.5438 11.0252 72.8573 9.54457 74.7737 9.54457C76.6901 9.54457 78.0036 11.0252 78.0036 13.183C78.0036 15.3408 76.6901 16.8214 74.7737 16.8214ZM60.5104 6.36978C58.7862 6.36978 57.3589 7.04693 56.4639 8.28501V0L52.7335 0.483861V19.6639H56.0417L56.1075 17.6628C56.9898 19.1561 58.57 19.9962 60.5117 19.9962C64.05 19.9962 66.639 17.1246 66.639 13.183C66.639 9.24136 64.0614 6.36978 60.5117 6.36978H60.5104ZM59.6281 16.8214C57.7116 16.8214 56.3982 15.3408 56.3982 13.183C56.3982 11.0252 57.7116 9.54457 59.6281 9.54457C61.5445 9.54457 62.8579 11.0252 62.8579 13.183C62.8579 15.3408 61.5445 16.8214 59.6281 16.8214ZM45.2637 16.9895C43.2853 16.9895 41.8657 16.071 41.3815 14.4868H50.563C50.6527 14.0029 50.7146 13.4281 50.7146 13.0428C50.7146 8.8712 48.3785 6.36978 44.4559 6.36978C40.5333 6.36978 37.7534 9.1504 37.7534 13.183C37.7534 17.2156 40.6268 19.9962 44.8908 19.9962C47.0992 19.9962 49.2457 19.2584 50.5882 18.0317L49.2457 15.6693C47.9449 16.5675 46.6681 16.9895 45.2649 16.9895H45.2637ZM44.4294 9.26537C46.1536 9.26537 47.2534 10.3114 47.2534 11.931V11.9437H41.3019C41.6596 10.2255 42.7708 9.26537 44.4294 9.26537ZM20.0669 6.70204L20.0012 8.72086C19.1188 7.21496 17.5386 6.37483 15.5969 6.37483C12.046 6.37483 9.46965 9.24642 9.46965 13.188C9.46965 17.1297 12.0637 20.0013 15.5982 20.0013C17.5399 20.0013 19.1239 19.1599 20.0024 17.6679L20.0682 19.669H23.3764V6.70204H20.0682H20.0669ZM16.4793 16.8214C14.5629 16.8214 13.2494 15.3408 13.2494 13.183C13.2494 11.0252 14.5629 9.54457 16.4793 9.54457C18.3957 9.54457 19.7092 11.0252 19.7092 13.183C19.7092 15.3408 18.3919 16.8214 16.4793 16.8214ZM9.19028 6.72731H5.83652V5.61935C5.83652 3.96185 6.48502 3.32639 8.16759 3.32639C8.68841 3.32639 9.1119 3.33902 9.35335 3.36302V0.520498C8.8932 0.3929 7.77318 0.266566 7.12468 0.266566C3.6976 0.266566 2.11743 1.88238 2.11743 5.373V6.72225H0V9.85661H2.11743V19.6639H5.84031V9.8604H8.61509L9.18901 6.72731H9.19028ZM25.0072 19.6728H28.7338V13.6466L33.9345 19.6728H38.4942L32.4403 12.7282L37.6119 6.70709H33.4617L28.7338 12.257V0.00379003L25.0072 0.491441V19.6715V19.6728Z" fill="#0866FF"/>
</g>
<defs>
<clipPath id="clip0_147_1265">
<rect width="112" height="20" fill="white"/>
</clipPath>
</defs>
</svg>
