<?xml version="1.0" encoding="UTF-8"?>
<svg id="Laag_1" data-name="Laag 1" xmlns="http://www.w3.org/2000/svg" viewBox="0 0 36.41 92.54">
  <defs>
    <style>
      .cls-1 {
        fill: #fff;
        stroke: #1d1d1b;
        stroke-miterlimit: 10;
        stroke-width: 3px;
      }
    </style>
  </defs>
  <path class="cls-1" d="M8.96,62.03c-4.73-2.23-5.42-11.08-7.1-28.77-.24-2.53-.36-3.83-.36-5.33.02-3.78.07-16.73,8.88-23.09,1.24-.89,5.68-4.1,11.01-3.2,8.68,1.47,12.3,12.62,12.79,14.21,1.88,6.08-.37,7.15-.71,20.62-.31,12.61,1.53,16.44-1.78,19.86-1.87,1.93-5.15,2.75-11.72,4.26-6.29,1.44-9.43,2.17-11.01,1.42Z"/>
  <path class="cls-1" d="M5.64,70.31c-1.97,3.28.16,7.83,1.26,10.19,1.97,4.22,5.03,6.48,6.17,7.3,1.58,1.14,3.8,2.73,7.13,3.11,1.22.14,4.73.54,7.55-1.5,3.89-2.8,3.84-8.33,3.81-11.64-.02-2.88-.09-10.39-4.62-12.79-1.75-.93-4.91-.19-11.17,1.31-8.8,2.11-9.74,3.36-10.14,4.02Z"/>
</svg>