<svg xmlns="http://www.w3.org/2000/svg" version="1.1" viewBox="0 0 128 128">
  <g>
    <path d="M36.48,74.88c-5.31.11-9.94-7.64-19.45-22.97-1.36-2.2-2.06-3.32-2.73-4.69-1.69-3.44-7.49-15.25-2.34-25.02.72-1.37,3.32-6.29,8.58-7.88,8.56-2.58,16.89,5.93,18.05,7.15,4.45,4.68,2.89,6.67,8.67,19.09,5.41,11.62,8.82,14.27,7.35,18.88-.83,2.61-3.44,4.83-8.74,9.17-5.07,4.15-7.6,6.23-9.38,6.26Z" fill="#000"/>
    <path d="M37.2,83.91c-.31,3.87,3.68,7.06,5.74,8.7,3.7,2.95,7.51,3.63,8.91,3.86,1.95.32,4.69.77,7.9-.39,1.17-.43,4.55-1.65,6.19-4.77,2.27-4.31-.27-9.32-1.79-12.32-1.32-2.61-4.77-9.41-9.97-9.55-2.01-.05-4.56,2.04-9.58,6.24-7.05,5.89-7.35,7.45-7.41,8.23Z" fill="#000"/>
  </g>
  <g>
    <path d="M106.76,85.95c2.87-4.47-1.31-12.47-9.4-28.59-1.16-2.31-1.76-3.49-2.57-4.78-2.05-3.24-9.08-14.36-20.1-15.08-1.55-.1-7.1-.47-11.2,3.19-6.68,5.95-3.78,17.5-3.34,19.13,1.66,6.25,4.17,5.96,11.73,17.37,7.07,10.68,7.55,14.98,12.25,16.14,2.66.65,5.91-.41,12.39-2.65,6.19-2.15,9.28-3.22,10.24-4.72Z" fill="#000"/>
    <path d="M114.07,91.29c3.46,1.76,4.09,6.83,4.41,9.45.58,4.7-.84,8.3-1.37,9.61-.75,1.83-1.8,4.4-4.46,6.53-.98.78-3.78,3.01-7.31,2.78-4.86-.32-7.8-5.1-9.56-7.96-1.53-2.49-5.53-8.99-2.92-13.5,1.01-1.74,4.13-2.82,10.32-4.9,8.71-2.93,10.19-2.36,10.89-2.01Z" fill="#000"/>
  </g>
</svg>