<svg width="37" height="36" viewBox="0 0 37 36" fill="none" xmlns="http://www.w3.org/2000/svg">
<path fill-rule="evenodd" clip-rule="evenodd" d="M7.35254 24C7.35254 21.3822 9.47471 19.26 12.0925 19.26H16.6525C19.2704 19.26 21.3925 21.3822 21.3925 24C21.3925 25.5575 20.13 26.82 18.5725 26.82H10.1725C8.6151 26.82 7.35254 25.5575 7.35254 24ZM12.0925 21.06C10.4688 21.06 9.15254 22.3763 9.15254 24C9.15254 24.5633 9.60921 25.02 10.1725 25.02H18.5725C19.1359 25.02 19.5925 24.5633 19.5925 24C19.5925 22.3763 18.2763 21.06 16.6525 21.06H12.0925Z" fill="white"/>
<path fill-rule="evenodd" clip-rule="evenodd" d="M22.833 21.6C22.833 21.1029 23.236 20.7 23.733 20.7H25.533C27.6206 20.7 29.313 22.3923 29.313 24.48C29.313 25.7723 28.2654 26.82 26.973 26.82H23.733C23.236 26.82 22.833 26.417 22.833 25.92C22.833 25.4229 23.236 25.02 23.733 25.02H26.973C27.2712 25.02 27.513 24.7782 27.513 24.48C27.513 23.3864 26.6265 22.5 25.533 22.5H23.733C23.236 22.5 22.833 22.097 22.833 21.6Z" fill="white"/>
<path fill-rule="evenodd" clip-rule="evenodd" d="M14.3721 10.6201C12.8809 10.6201 11.6721 11.8289 11.6721 13.3201C11.6721 14.8112 12.8809 16.0201 14.3721 16.0201C15.8632 16.0201 17.0721 14.8112 17.0721 13.3201C17.0721 11.8289 15.8632 10.6201 14.3721 10.6201ZM9.87207 13.3201C9.87207 10.8348 11.8868 8.82007 14.3721 8.82007C16.8574 8.82007 18.8721 10.8348 18.8721 13.3201C18.8721 15.8053 16.8574 17.8201 14.3721 17.8201C11.8868 17.8201 9.87207 15.8053 9.87207 13.3201Z" fill="white"/>
<path fill-rule="evenodd" clip-rule="evenodd" d="M23.3725 14.58C22.6766 14.58 22.1125 15.1442 22.1125 15.84C22.1125 16.5359 22.6766 17.1 23.3725 17.1C24.0684 17.1 24.6325 16.5359 24.6325 15.84C24.6325 15.1442 24.0684 14.58 23.3725 14.58ZM20.3125 15.84C20.3125 14.15 21.6825 12.78 23.3725 12.78C25.0625 12.78 26.4325 14.15 26.4325 15.84C26.4325 17.53 25.0625 18.9 23.3725 18.9C21.6825 18.9 20.3125 17.53 20.3125 15.84Z" fill="white"/>
</svg>
