<svg width="30" height="25" viewBox="0 0 30 25" fill="none" xmlns="http://www.w3.org/2000/svg">
<path fill-rule="evenodd" clip-rule="evenodd" d="M0.360352 21C0.360352 17.5096 3.18991 14.68 6.68035 14.68H12.7604C16.2508 14.68 19.0804 17.5096 19.0804 21C19.0804 23.0766 17.3969 24.76 15.3204 24.76H4.12035C2.04376 24.76 0.360352 23.0766 0.360352 21ZM6.68035 17.08C4.5154 17.08 2.76035 18.8351 2.76035 21C2.76035 21.7511 3.36924 22.36 4.12035 22.36H15.3204C16.0715 22.36 16.6804 21.7511 16.6804 21C16.6804 18.8351 14.9253 17.08 12.7604 17.08H6.68035Z" fill="white"/>
<path fill-rule="evenodd" clip-rule="evenodd" d="M21 17.8C21 17.1373 21.5373 16.6 22.2 16.6H24.6C27.3835 16.6 29.64 18.8565 29.64 21.64C29.64 23.3631 28.2431 24.76 26.52 24.76H22.2C21.5373 24.76 21 24.2227 21 23.56C21 22.8973 21.5373 22.36 22.2 22.36H26.52C26.9176 22.36 27.24 22.0377 27.24 21.64C27.24 20.182 26.058 19 24.6 19H22.2C21.5373 19 21 18.4627 21 17.8Z" fill="white"/>
<path fill-rule="evenodd" clip-rule="evenodd" d="M9.7207 3.16001C7.73248 3.16001 6.1207 4.77178 6.1207 6.76001C6.1207 8.74823 7.73248 10.36 9.7207 10.36C11.7089 10.36 13.3207 8.74823 13.3207 6.76001C13.3207 4.77178 11.7089 3.16001 9.7207 3.16001ZM3.7207 6.76001C3.7207 3.4463 6.40699 0.76001 9.7207 0.76001C13.0344 0.76001 15.7207 3.4463 15.7207 6.76001C15.7207 10.0737 13.0344 12.76 9.7207 12.76C6.40699 12.76 3.7207 10.0737 3.7207 6.76001Z" fill="white"/>
<path fill-rule="evenodd" clip-rule="evenodd" d="M21.7206 8.44001C20.7928 8.44001 20.0406 9.19217 20.0406 10.12C20.0406 11.0478 20.7928 11.8 21.7206 11.8C22.6485 11.8 23.4006 11.0478 23.4006 10.12C23.4006 9.19217 22.6485 8.44001 21.7206 8.44001ZM17.6406 10.12C17.6406 7.86669 19.4673 6.04001 21.7206 6.04001C23.9739 6.04001 25.8006 7.86669 25.8006 10.12C25.8006 12.3733 23.9739 14.2 21.7206 14.2C19.4673 14.2 17.6406 12.3733 17.6406 10.12Z" fill="white"/>
</svg>
