<?xml version="1.0" encoding="UTF-8"?>
<svg id="Laag_1" data-name="Laag 1" xmlns="http://www.w3.org/2000/svg" viewBox="0 0 128 128">
  <path d="M64,12c-28.67,0-52,23.33-52,52s23.33,52,52,52,52-23.33,52-52S92.67,12,64,12ZM64,102c-4.41,0-8-3.59-8-8s3.59-8,8-8,8,3.59,8,8-3.59,8-8,8ZM81.74,61.93c-2.17,2.53-4.24,4.27-5.9,5.67-3.38,2.83-4.64,3.9-4.64,8.81,0,2.19-1.76,3.97-3.95,4-1.82.02-3.23.04-4.35.04-3.88,0-4.1-.22-5.09-1.19-.76-.75-1.19-1.78-1.19-2.85,0-9.67,4.32-13.31,8.5-16.83,1.35-1.14,2.74-2.31,4.04-3.75,2.34-2.59,3.17-6.9,1.89-9.79-.91-2.06-2.71-3.07-5.51-3.08h-.08c-8.73,0-9.94,4.79-9.95,4.84-.38,1.86-2.02,3.2-3.92,3.2h-5.58c-1.11,0-2.18-.46-2.93-1.28-.76-.82-1.14-1.91-1.05-3.02.44-5.77,5.92-16.67,23.48-16.67h.06c11.57.02,16.33,6.62,18.13,10.55,3.52,7.67,1.73,17.06-1.95,21.35Z" fill="#000" stroke-width="0"/>
</svg>