<svg width="36" height="36" viewBox="0 0 36 36" fill="none" xmlns="http://www.w3.org/2000/svg">
<path fill-rule="evenodd" clip-rule="evenodd" d="M18.5878 9.26124C18.1349 8.91285 17.5042 8.91285 17.0513 9.26125L9.85134 14.7997C9.54127 15.0382 9.35957 15.4072 9.35957 15.7984V25.8948C9.35957 26.5907 9.92369 27.1548 10.6196 27.1548H25.0196C25.7155 27.1548 26.2796 26.5907 26.2796 25.8948V15.7984C26.2796 15.4072 26.0979 15.0382 25.7878 14.7997L18.5878 9.26124ZM15.9539 7.83452C17.0538 6.98843 18.5854 6.98843 19.6853 7.83452L26.8853 13.373C27.6383 13.9522 28.0796 14.8484 28.0796 15.7984V25.8948C28.0796 27.5848 26.7096 28.9548 25.0196 28.9548H10.6196C8.92958 28.9548 7.55957 27.5848 7.55957 25.8948V15.7984C7.55957 14.8484 8.00083 13.9522 8.75386 13.373L15.9539 7.83452Z" fill="white"/>
<path fill-rule="evenodd" clip-rule="evenodd" d="M13.6797 20.8549C13.6797 19.5625 14.7273 18.5149 16.0197 18.5149H19.2597C20.552 18.5149 21.5997 19.5625 21.5997 20.8549V28.0549H19.7997V20.8549C19.7997 20.5567 19.5579 20.3149 19.2597 20.3149H16.0197C15.7215 20.3149 15.4797 20.5567 15.4797 20.8549V28.0549H13.6797V20.8549Z" fill="white"/>
</svg>
