<svg width="30" height="30" viewBox="0 0 30 30" fill="none" xmlns="http://www.w3.org/2000/svg">
<path fill-rule="evenodd" clip-rule="evenodd" d="M0.599609 15C0.599609 13.8071 1.56667 12.84 2.75961 12.84H8.51961C9.18235 12.84 9.71961 13.3773 9.71961 14.04V27.96C9.71961 28.6227 9.18235 29.16 8.51961 29.16H2.75961C1.56667 29.16 0.599609 28.1929 0.599609 27V15ZM2.99961 15.24V26.76H7.31961V15.24H2.99961Z" fill="white"/>
<path fill-rule="evenodd" clip-rule="evenodd" d="M13.3194 2.75999C13.1868 2.75999 13.0794 2.86744 13.0794 2.99999V7.31999C13.0794 7.50628 13.036 7.69001 12.9527 7.85664L9.35268 15.0566C9.05629 15.6494 8.33548 15.8897 7.74271 15.5933C7.14993 15.2969 6.90966 14.5761 7.20605 13.9833L10.6794 7.0367V2.99999C10.6794 1.54195 11.8613 0.359985 13.3194 0.359985H14.2794C16.7978 0.359985 18.8394 2.40157 18.8394 4.91999V10.2H24.4345C27.8277 10.2 30.2513 13.4851 29.2501 16.7272L27.1044 23.6753C26.1414 26.7934 23.259 28.92 19.9956 28.92H8.27936C7.61662 28.92 7.07936 28.3827 7.07936 27.72C7.07936 27.0572 7.61662 26.52 8.27936 26.52H19.9956C22.2063 26.52 24.1589 25.0794 24.8112 22.9672L26.957 16.019C27.4814 14.3208 26.2119 12.6 24.4345 12.6H17.6394C16.9766 12.6 16.4394 12.0627 16.4394 11.4V4.91999C16.4394 3.72705 15.4723 2.75999 14.2794 2.75999H13.3194Z" fill="white"/>
</svg>
