<svg xmlns="http://www.w3.org/2000/svg" viewBox="0 0 128 128">
  <path d="M112,70h-8c-2.21,0-4,1.79-4,4v26H28v-26c0-2.21-1.79-4-4-4h-8c-2.21,0-4,1.79-4,4v38c0,2.21,1.79,4,4,4h96c2.21,0,4-1.79,4-4v-38c0-2.21-1.79-4-4-4Z" fill="#000"/>
  <path d="M90.7,62.47c-.62-1.49-2.08-2.47-3.7-2.47h-12V16c0-2.21-1.79-4-4-4h-16c-2.21,0-4,1.79-4,4v44h-11c-1.6,0-3.05.96-3.68,2.43-.63,1.47-.32,3.18.79,4.34l23,24c.74.78,1.77,1.22,2.84,1.23h.04c1.06,0,2.08-.42,2.83-1.17l24-24c1.14-1.14,1.49-2.86.87-4.36Z" fill="#000"/>
</svg>