<svg width="28" height="30" viewBox="0 0 28 30" fill="none" xmlns="http://www.w3.org/2000/svg">
<path fill-rule="evenodd" clip-rule="evenodd" d="M14.7844 3.3484C14.1805 2.88388 13.3396 2.88388 12.7358 3.3484L3.13576 10.733C2.72234 11.051 2.48008 11.543 2.48008 12.0646V25.5265C2.48008 26.4543 3.23224 27.2065 4.16008 27.2065H23.3601C24.2879 27.2065 25.0401 26.4543 25.0401 25.5265V12.0646C25.0401 11.543 24.7978 11.051 24.3844 10.733L14.7844 3.3484ZM11.2725 1.4461C12.739 0.317975 14.7811 0.317974 16.2477 1.4461L25.8477 8.83072C26.8517 9.60304 27.4401 10.7979 27.4401 12.0646V25.5265C27.4401 27.7798 25.6134 29.6065 23.3601 29.6065H4.16008C1.90676 29.6065 0.0800781 27.7798 0.0800781 25.5265V12.0646C0.0800781 10.7979 0.66843 9.60304 1.67246 8.83072L11.2725 1.4461Z" fill="white"/>
<path fill-rule="evenodd" clip-rule="evenodd" d="M8.24023 18.8065C8.24023 17.0834 9.63711 15.6865 11.3602 15.6865H15.6802C17.4034 15.6865 18.8002 17.0834 18.8002 18.8065V28.4065H16.4002V18.8065C16.4002 18.4088 16.0779 18.0865 15.6802 18.0865H11.3602C10.9626 18.0865 10.6402 18.4088 10.6402 18.8065V28.4065H8.24023V18.8065Z" fill="white"/>
</svg>
