<svg width="24" height="24" viewBox="0 0 24 24" fill="none" xmlns="http://www.w3.org/2000/svg">
<path d="M12 6.29875C11.6074 6.29875 11.2511 6.069 11.0891 5.71137C10.4573 4.31658 9.37609 3.25 7.5 3.25C7.50407 3.25 7.50336 3.25003 7.4982 3.25029C7.42316 3.25394 6.40663 3.30344 5.40233 3.9597C4.40333 4.61249 3.25 5.97094 3.25 9C3.25 10.1891 3.71609 11.4989 4.51245 12.8495C5.30341 14.191 6.3768 15.4997 7.48645 16.6669C9.43856 18.7202 11.4313 20.2614 11.9992 20.688C12.5647 20.2637 14.5589 18.7218 16.5123 16.6669C17.6219 15.4998 18.6951 14.1911 19.4859 12.8496C20.2821 11.4989 20.7481 10.1891 20.7481 9C20.7481 5.97094 19.5948 4.61249 18.5958 3.9597C17.5915 3.30344 16.575 3.25394 16.4999 3.25029C16.4948 3.25003 16.4941 3.25 16.4981 3.25L12 6.29875ZM12 6.29875C12.3926 6.29875 12.7489 6.069 12.9109 5.71137C13.5427 4.31658 14.6239 3.25 16.5 3.25L12 6.29875Z" stroke="black" stroke-width="2" stroke-linejoin="round"/>
</svg>
