<svg width="37" height="36" viewBox="0 0 37 36" fill="none" xmlns="http://www.w3.org/2000/svg">
<path fill-rule="evenodd" clip-rule="evenodd" d="M7.86719 18.0001C7.86719 17.1054 8.59249 16.3801 9.48719 16.3801H13.8072C14.3042 16.3801 14.7072 16.7831 14.7072 17.2801V27.7201C14.7072 28.2172 14.3042 28.6201 13.8072 28.6201H9.48719C8.59249 28.6201 7.86719 27.8948 7.86719 27.0001V18.0001ZM9.66719 18.1801V26.8201H12.9072V18.1801H9.66719Z" fill="white"/>
<path fill-rule="evenodd" clip-rule="evenodd" d="M17.4068 8.82002C17.3073 8.82002 17.2268 8.90061 17.2268 9.00002V12.24C17.2268 12.3797 17.1942 12.5175 17.1317 12.6425L14.4317 18.0425C14.2095 18.4871 13.6688 18.6673 13.2243 18.445C12.7797 18.2227 12.5995 17.6821 12.8218 17.2375L15.4268 12.0276V9.00002C15.4268 7.9065 16.3132 7.02002 17.4068 7.02002H18.1268C20.0156 7.02002 21.5468 8.55121 21.5468 10.44V14.4H25.7431C28.288 14.4 30.1057 16.8639 29.3548 19.2954L27.7455 24.5065C27.0233 26.8451 24.8615 28.44 22.414 28.44H13.6268C13.1297 28.44 12.7268 28.0371 12.7268 27.54C12.7268 27.043 13.1297 26.64 13.6268 26.64H22.414C24.072 26.64 25.5364 25.5596 26.0257 23.9754L27.635 18.7643C28.0283 17.4906 27.0761 16.2 25.7431 16.2H20.6468C20.1497 16.2 19.7468 15.7971 19.7468 15.3V10.44C19.7468 9.54532 19.0215 8.82002 18.1268 8.82002H17.4068Z" fill="white"/>
</svg>
