<svg width="148" height="31" viewBox="0 0 148 31" fill="none" xmlns="http://www.w3.org/2000/svg">
<path d="M133.18 7.635C137.28 7.635 141.11 8.735 144.41 10.665L147.93 4.645C143.6 2.105 138.56 0.654999 133.18 0.654999C127.8 0.654999 122.77 2.105 118.44 4.645L121.96 10.665C125.26 8.735 129.1 7.635 133.18 7.635Z" fill="black"/>
<path d="M136.44 10.945C135.01 10.935 130.67 10.845 125.09 13.425C124.38 13.755 123.88 14.035 123.76 13.855C123.52 13.475 125.29 11.965 127.19 10.865C127.88 10.455 128.27 10.095 128.12 9.79501C127.89 9.35501 126.53 9.26501 122.72 11.205C120.77 12.295 119.01 13.685 117.5 15.305L118.12 15.895C118.73 15.245 119.39 14.645 120.06 14.065C120.51 13.675 122.59 12.125 122.77 12.595C122.84 12.785 122.71 13.055 121.97 14.065C121.33 14.955 120.91 15.785 121.21 16.045C121.51 16.305 121.88 16.155 122.75 15.675C123.39 15.315 125.43 14.235 128.65 13.275C131.87 12.315 132.65 12.685 132.73 12.915C132.83 13.235 131.35 13.755 130.47 14.185C129.74 14.555 127.16 16.075 125.76 17.205L127.12 19.535C128.56 18.685 134.07 17.295 134.65 18.295C135.29 19.395 129.44 23.515 129.44 23.515L133.17 29.925C133.17 29.925 141.66 20.175 140.31 18.035C138.95 15.905 133.84 16.305 131.82 16.495C131.27 16.545 130.62 16.665 130.48 16.395C130.33 16.095 130.5 14.875 137.32 13.265C138.84 12.905 139.43 12.725 139.34 12.055C139.28 11.455 137.87 10.955 136.44 10.945Z" fill="black"/>
<path d="M106.78 0.654999V29.905" stroke="black" stroke-width="0.7536" stroke-miterlimit="10"/>
<path d="M11.9202 3.755C12.6802 3.755 13.3102 3.84501 13.8102 4.03501C14.3102 4.22501 14.6802 4.51501 14.9202 4.89501C15.1602 5.27501 15.2902 5.77501 15.2902 6.36501C15.2902 6.85501 15.2002 7.26501 15.0202 7.59501C14.8402 7.925 14.6102 8.18501 14.3202 8.39501C14.0302 8.60501 13.7302 8.75501 13.4002 8.86501L15.9502 13.035H14.6902L12.4202 9.165H10.4902V13.035H9.41016V3.755H11.9202ZM11.8502 4.68501H10.4902V8.245H11.9602C12.7202 8.245 13.2702 8.09501 13.6302 7.78501C13.9902 7.47501 14.1702 7.025 14.1702 6.425C14.1702 5.795 13.9802 5.345 13.6002 5.085C13.2202 4.815 12.6402 4.68501 11.8502 4.68501Z" fill="black"/>
<path d="M19.9304 5.94501C20.5204 5.94501 21.0304 6.07501 21.4504 6.33501C21.8704 6.59501 22.2004 6.96501 22.4204 7.43501C22.6404 7.90501 22.7604 8.45501 22.7604 9.08501V9.73501H17.9504C17.9604 10.555 18.1704 11.175 18.5604 11.605C18.9504 12.035 19.5104 12.245 20.2204 12.245C20.6604 12.245 21.0504 12.205 21.3904 12.125C21.7304 12.045 22.0804 11.925 22.4404 11.765V12.695C22.0904 12.855 21.7404 12.965 21.4004 13.035C21.0504 13.105 20.6504 13.145 20.1804 13.145C19.5104 13.145 18.9304 13.005 18.4304 12.735C17.9304 12.465 17.5504 12.065 17.2704 11.535C16.9904 11.005 16.8604 10.355 16.8604 9.59501C16.8604 8.84501 16.9904 8.19501 17.2404 7.64501C17.4904 7.09501 17.8504 6.67501 18.3104 6.37501C18.7704 6.09501 19.3104 5.94501 19.9304 5.94501ZM19.9204 6.81501C19.3604 6.81501 18.9104 6.99501 18.5704 7.36501C18.2304 7.73501 18.0404 8.24501 17.9704 8.90501H21.6504C21.6504 8.49501 21.5804 8.12501 21.4604 7.81501C21.3404 7.49501 21.1504 7.25501 20.8904 7.07501C20.6404 6.89501 20.3104 6.81501 19.9204 6.81501Z" fill="black"/>
<path d="M29.0203 11.125C29.0203 11.565 28.9103 11.945 28.6903 12.245C28.4703 12.545 28.1503 12.775 27.7403 12.925C27.3303 13.075 26.8403 13.155 26.2603 13.155C25.7703 13.155 25.3503 13.115 25.0003 13.045C24.6503 12.975 24.3303 12.865 24.0703 12.725V11.755C24.3503 11.895 24.6903 12.025 25.0903 12.135C25.4903 12.245 25.8903 12.305 26.3003 12.305C26.9003 12.305 27.3403 12.205 27.6103 12.015C27.8803 11.825 28.0203 11.555 28.0203 11.225C28.0203 11.035 27.9703 10.865 27.8603 10.725C27.7503 10.575 27.5703 10.435 27.3203 10.305C27.0703 10.165 26.7203 10.015 26.2703 9.85501C25.8303 9.68501 25.4403 9.51501 25.1203 9.35501C24.8003 9.18501 24.5503 8.985 24.3703 8.745C24.1903 8.505 24.1103 8.19501 24.1103 7.80501C24.1103 7.21501 24.3503 6.76501 24.8203 6.44501C25.3003 6.13501 25.9203 5.97501 26.7003 5.97501C27.1203 5.97501 27.5103 6.01501 27.8803 6.09501C28.2503 6.17501 28.5903 6.285 28.9103 6.425L28.5503 7.26501C28.2603 7.14501 27.9603 7.03501 27.6303 6.95501C27.3003 6.87501 26.9703 6.825 26.6303 6.825C26.1403 6.825 25.7703 6.90501 25.5103 7.06501C25.2503 7.22501 25.1203 7.44501 25.1203 7.72501C25.1203 7.94501 25.1803 8.115 25.3003 8.255C25.4203 8.395 25.6103 8.52501 25.8803 8.64501C26.1503 8.76501 26.5003 8.915 26.9303 9.075C27.3703 9.235 27.7403 9.405 28.0603 9.575C28.3803 9.745 28.6203 9.95501 28.7903 10.195C28.9403 10.435 29.0203 10.745 29.0203 11.125Z" fill="black"/>
<path d="M33.9597 5.94501C34.8297 5.94501 35.5197 6.24501 36.0397 6.84501C36.5597 7.44501 36.8097 8.33501 36.8097 9.53501C36.8097 10.325 36.6897 10.995 36.4497 11.525C36.2097 12.055 35.8797 12.465 35.4497 12.745C35.0197 13.015 34.5097 13.155 33.9297 13.155C33.5597 13.155 33.2397 13.105 32.9597 13.005C32.6797 12.905 32.4397 12.775 32.2397 12.615C32.0397 12.455 31.8797 12.275 31.7397 12.075H31.6597C31.6697 12.245 31.6897 12.435 31.7097 12.675C31.7297 12.905 31.7397 13.115 31.7397 13.285V16.145H30.6797V6.07501H31.5497L31.6897 7.10501H31.7397C31.8797 6.89501 32.0397 6.69501 32.2397 6.52501C32.4297 6.34501 32.6697 6.21501 32.9497 6.10501C33.2397 5.99501 33.5797 5.94501 33.9597 5.94501ZM33.7797 6.83501C33.2997 6.83501 32.9097 6.92501 32.6197 7.11501C32.3297 7.30501 32.1097 7.57501 31.9797 7.94501C31.8397 8.31501 31.7697 8.77501 31.7597 9.33501V9.53501C31.7597 10.125 31.8197 10.625 31.9497 11.025C32.0797 11.435 32.2897 11.745 32.5897 11.955C32.8897 12.165 33.2897 12.275 33.7897 12.275C34.2197 12.275 34.5797 12.155 34.8697 11.925C35.1597 11.695 35.3697 11.365 35.5097 10.955C35.6497 10.535 35.7197 10.055 35.7197 9.51501C35.7197 8.69501 35.5597 8.04501 35.2397 7.55501C34.9297 7.07501 34.4397 6.83501 33.7797 6.83501Z" fill="black"/>
<path d="M44.62 9.54501C44.62 10.115 44.55 10.625 44.4 11.075C44.25 11.525 44.04 11.905 43.76 12.215C43.48 12.525 43.14 12.755 42.75 12.925C42.35 13.085 41.91 13.165 41.41 13.165C40.94 13.165 40.52 13.085 40.13 12.925C39.74 12.765 39.41 12.525 39.13 12.215C38.85 11.905 38.63 11.525 38.48 11.075C38.33 10.625 38.25 10.115 38.25 9.54501C38.25 8.78501 38.38 8.13501 38.64 7.59501C38.9 7.05501 39.27 6.65501 39.75 6.36501C40.23 6.08501 40.8 5.94501 41.47 5.94501C42.1 5.94501 42.66 6.08501 43.14 6.37501C43.62 6.65501 43.99 7.06501 44.25 7.60501C44.49 8.13501 44.62 8.78501 44.62 9.54501ZM39.32 9.54501C39.32 10.105 39.39 10.585 39.54 10.995C39.69 11.405 39.92 11.725 40.23 11.945C40.54 12.165 40.94 12.285 41.42 12.285C41.9 12.285 42.3 12.175 42.61 11.945C42.92 11.725 43.15 11.405 43.3 10.995C43.45 10.585 43.52 10.095 43.52 9.54501C43.52 8.99501 43.45 8.51501 43.3 8.10501C43.15 7.70501 42.92 7.38501 42.61 7.16501C42.3 6.94501 41.9 6.83501 41.41 6.83501C40.69 6.83501 40.16 7.07501 39.82 7.55501C39.49 8.03501 39.32 8.69501 39.32 9.54501Z" fill="black"/>
<path d="M49.7102 5.94501C50.5402 5.94501 51.1602 6.14501 51.5802 6.55501C52.0002 6.95501 52.2102 7.60501 52.2102 8.50501V13.035H51.1702V8.57501C51.1702 7.99501 51.0402 7.56501 50.7702 7.27501C50.5102 6.98501 50.1002 6.84501 49.5502 6.84501C48.7802 6.84501 48.2402 7.06501 47.9302 7.49501C47.6202 7.92501 47.4602 8.56501 47.4602 9.39501V13.035H46.4102V6.07501H47.2602L47.4202 7.07501H47.4802C47.6302 6.82501 47.8202 6.62501 48.0402 6.45501C48.2702 6.28501 48.5202 6.16501 48.8102 6.07501C49.1002 5.99501 49.4002 5.94501 49.7102 5.94501Z" fill="black"/>
<path d="M58.8602 11.125C58.8602 11.565 58.7502 11.945 58.5302 12.245C58.3102 12.545 57.9902 12.775 57.5802 12.925C57.1702 13.075 56.6802 13.155 56.1002 13.155C55.6102 13.155 55.1902 13.115 54.8402 13.045C54.4902 12.975 54.1702 12.865 53.9102 12.725V11.755C54.1902 11.895 54.5302 12.025 54.9302 12.135C55.3302 12.245 55.7302 12.305 56.1402 12.305C56.7402 12.305 57.1802 12.205 57.4502 12.015C57.7202 11.825 57.8602 11.555 57.8602 11.225C57.8602 11.035 57.8102 10.865 57.7002 10.725C57.5902 10.575 57.4102 10.435 57.1602 10.305C56.9102 10.165 56.5602 10.015 56.1102 9.85501C55.6702 9.68501 55.2802 9.51501 54.9602 9.35501C54.6402 9.18501 54.3902 8.985 54.2102 8.745C54.0302 8.505 53.9502 8.19501 53.9502 7.80501C53.9502 7.21501 54.1902 6.76501 54.6602 6.44501C55.1402 6.13501 55.7602 5.97501 56.5402 5.97501C56.9602 5.97501 57.3502 6.01501 57.7202 6.09501C58.0902 6.17501 58.4302 6.285 58.7502 6.425L58.3902 7.26501C58.1002 7.14501 57.8002 7.03501 57.4702 6.95501C57.1402 6.87501 56.8102 6.825 56.4702 6.825C55.9802 6.825 55.6102 6.90501 55.3502 7.06501C55.0902 7.22501 54.9602 7.44501 54.9602 7.72501C54.9602 7.94501 55.0202 8.115 55.1402 8.255C55.2602 8.395 55.4502 8.52501 55.7202 8.64501C55.9902 8.76501 56.3402 8.915 56.7702 9.075C57.2102 9.235 57.5802 9.405 57.9002 9.575C58.2202 9.745 58.4602 9.95501 58.6302 10.195C58.7802 10.435 58.8602 10.745 58.8602 11.125Z" fill="black"/>
<path d="M61.0704 3.47501C61.2404 3.47501 61.3904 3.53501 61.5204 3.64501C61.6404 3.75501 61.7104 3.935 61.7104 4.165C61.7104 4.395 61.6504 4.57501 61.5204 4.68501C61.4004 4.79501 61.2504 4.85501 61.0704 4.85501C60.8904 4.85501 60.7404 4.79501 60.6204 4.68501C60.5004 4.57501 60.4404 4.395 60.4404 4.165C60.4404 3.925 60.5004 3.75501 60.6204 3.64501C60.7404 3.52501 60.8904 3.47501 61.0704 3.47501ZM61.5804 6.075V13.035H60.5304V6.075H61.5804Z" fill="black"/>
<path d="M64.8403 3.155V5.625C64.8403 5.905 64.8303 6.185 64.8203 6.455C64.8003 6.725 64.7903 6.925 64.7803 7.075H64.8403C65.0303 6.765 65.3103 6.495 65.6703 6.285C66.0303 6.075 66.4903 5.965 67.0503 5.965C67.9203 5.965 68.6203 6.265 69.1303 6.865C69.6503 7.465 69.9103 8.365 69.9103 9.555C69.9103 10.335 69.7903 10.995 69.5503 11.535C69.3103 12.075 68.9803 12.475 68.5503 12.755C68.1203 13.035 67.6103 13.165 67.0203 13.165C66.4703 13.165 66.0203 13.065 65.6603 12.855C65.3103 12.645 65.0403 12.395 64.8403 12.105H64.7603L64.5403 13.035H63.7803V3.155H64.8403ZM66.8703 6.835C66.3703 6.835 65.9703 6.935 65.6703 7.125C65.3703 7.325 65.1603 7.615 65.0303 8.015C64.9003 8.415 64.8403 8.915 64.8403 9.515V9.575C64.8403 10.455 64.9903 11.125 65.2803 11.585C65.5703 12.045 66.1003 12.285 66.8703 12.285C67.5203 12.285 68.0003 12.045 68.3303 11.575C68.6503 11.105 68.8203 10.425 68.8203 9.545C68.8203 8.645 68.6603 7.975 68.3403 7.525C68.0103 7.065 67.5303 6.835 66.8703 6.835Z" fill="black"/>
<path d="M72.77 13.035H71.71V3.155H72.77V13.035Z" fill="black"/>
<path d="M77.6501 5.94501C78.2401 5.94501 78.7501 6.07501 79.1701 6.33501C79.5901 6.59501 79.9201 6.96501 80.1401 7.43501C80.3601 7.90501 80.4801 8.45501 80.4801 9.08501V9.73501H75.6701C75.6801 10.555 75.8901 11.175 76.2801 11.605C76.6701 12.035 77.2301 12.245 77.9401 12.245C78.3801 12.245 78.7701 12.205 79.1101 12.125C79.4501 12.045 79.8001 11.925 80.1601 11.765V12.695C79.8101 12.855 79.4601 12.965 79.1201 13.035C78.7701 13.105 78.3701 13.145 77.9001 13.145C77.2301 13.145 76.6501 13.005 76.1501 12.735C75.6501 12.465 75.2701 12.065 74.9901 11.535C74.7101 11.005 74.5801 10.355 74.5801 9.59501C74.5801 8.84501 74.7101 8.19501 74.9601 7.64501C75.2101 7.09501 75.5701 6.67501 76.0301 6.37501C76.4901 6.09501 77.0301 5.94501 77.6501 5.94501ZM77.6401 6.81501C77.0801 6.81501 76.6301 6.99501 76.2901 7.36501C75.9501 7.73501 75.7601 8.24501 75.6901 8.90501H79.3701C79.3701 8.49501 79.3001 8.12501 79.1801 7.81501C79.0601 7.49501 78.8701 7.25501 78.6101 7.07501C78.3601 6.89501 78.0301 6.81501 77.6401 6.81501Z" fill="black"/>
<path d="M85.75 13.035V3.755H86.83V13.035H85.75Z" fill="black"/>
<path d="M92.2102 13.035H91.1202V4.70501H88.2002V3.755H95.1102V4.70501H92.2002V13.035H92.2102Z" fill="black"/>
<path d="M2.51 17.955C3.27 17.955 3.9 18.045 4.4 18.235C4.9 18.425 5.27 18.715 5.51 19.095C5.75 19.475 5.88 19.975 5.88 20.565C5.88 21.055 5.79 21.465 5.61 21.795C5.43 22.125 5.2 22.385 4.91 22.595C4.62 22.805 4.32 22.955 3.99 23.065L6.54 27.235H5.28L3.01 23.365H1.08V27.235H0V17.955H2.51ZM2.45 18.885H1.08V22.445H2.56C3.32 22.445 3.87 22.295 4.23 21.985C4.59 21.675 4.77 21.225 4.77 20.625C4.77 19.995 4.58 19.545 4.2 19.285C3.82 19.015 3.23 18.885 2.45 18.885Z" fill="black"/>
<path d="M10.52 20.145C11.11 20.145 11.62 20.275 12.04 20.535C12.46 20.795 12.79 21.165 13.01 21.635C13.23 22.105 13.35 22.655 13.35 23.285V23.935H8.53996C8.54996 24.755 8.75996 25.375 9.14996 25.805C9.53996 26.235 10.1 26.445 10.81 26.445C11.25 26.445 11.64 26.405 11.98 26.325C12.32 26.245 12.67 26.125 13.03 25.965V26.895C12.68 27.055 12.33 27.165 11.99 27.235C11.64 27.305 11.24 27.345 10.77 27.345C10.1 27.345 9.51996 27.205 9.01996 26.935C8.51996 26.665 8.13996 26.265 7.85996 25.735C7.57996 25.205 7.45996 24.575 7.45996 23.805C7.45996 23.055 7.58996 22.405 7.83996 21.855C8.08996 21.305 8.44996 20.885 8.90996 20.585C9.35996 20.295 9.89996 20.145 10.52 20.145ZM10.51 21.015C9.94996 21.015 9.49996 21.195 9.15996 21.565C8.81996 21.935 8.62996 22.445 8.55996 23.105H12.24C12.24 22.695 12.17 22.325 12.05 22.015C11.93 21.695 11.74 21.455 11.48 21.275C11.23 21.095 10.91 21.015 10.51 21.015Z" fill="black"/>
<path d="M19.6199 25.325C19.6199 25.765 19.5099 26.145 19.2899 26.445C19.0699 26.745 18.7499 26.975 18.3399 27.125C17.9299 27.275 17.4399 27.355 16.8599 27.355C16.3699 27.355 15.9499 27.315 15.5999 27.245C15.2499 27.175 14.9299 27.065 14.6699 26.925V25.955C14.9499 26.095 15.2899 26.225 15.6899 26.335C16.0899 26.445 16.4899 26.505 16.8999 26.505C17.4999 26.505 17.9399 26.405 18.2099 26.215C18.4799 26.025 18.6199 25.755 18.6199 25.425C18.6199 25.235 18.5699 25.065 18.4599 24.925C18.3499 24.775 18.1699 24.635 17.9199 24.505C17.6699 24.365 17.3199 24.215 16.8699 24.055C16.4299 23.885 16.0399 23.715 15.7199 23.555C15.3999 23.385 15.1499 23.185 14.9699 22.945C14.7899 22.705 14.7099 22.395 14.7099 22.005C14.7099 21.415 14.9499 20.965 15.4199 20.645C15.8999 20.335 16.5199 20.175 17.2999 20.175C17.7199 20.175 18.1099 20.215 18.4799 20.295C18.8499 20.375 19.1899 20.485 19.5099 20.625L19.1499 21.465C18.8599 21.345 18.5599 21.235 18.2299 21.155C17.8999 21.075 17.5699 21.025 17.2299 21.025C16.7399 21.025 16.3699 21.105 16.1099 21.265C15.8499 21.425 15.7199 21.645 15.7199 21.925C15.7199 22.145 15.7799 22.315 15.8999 22.455C16.0199 22.595 16.2099 22.725 16.4799 22.845C16.7499 22.965 17.0999 23.115 17.5299 23.275C17.9699 23.435 18.3399 23.605 18.6599 23.775C18.9799 23.945 19.2199 24.155 19.3899 24.395C19.5299 24.635 19.6199 24.945 19.6199 25.325Z" fill="black"/>
<path d="M23.9596 20.145C24.5496 20.145 25.0596 20.275 25.4796 20.535C25.8996 20.795 26.2296 21.165 26.4496 21.635C26.6696 22.105 26.7896 22.655 26.7896 23.285V23.935H21.9796C21.9896 24.755 22.1996 25.375 22.5896 25.805C22.9796 26.235 23.5396 26.445 24.2496 26.445C24.6896 26.445 25.0796 26.405 25.4196 26.325C25.7596 26.245 26.1096 26.125 26.4696 25.965V26.895C26.1196 27.055 25.7696 27.165 25.4296 27.235C25.0796 27.305 24.6796 27.345 24.2096 27.345C23.5396 27.345 22.9596 27.205 22.4596 26.935C21.9596 26.665 21.5796 26.265 21.2996 25.735C21.0196 25.205 20.8896 24.555 20.8896 23.795C20.8896 23.045 21.0196 22.395 21.2696 21.845C21.5196 21.295 21.8796 20.875 22.3396 20.575C22.7996 20.295 23.3396 20.145 23.9596 20.145ZM23.9496 21.015C23.3896 21.015 22.9396 21.195 22.5996 21.565C22.2596 21.935 22.0696 22.445 21.9996 23.105H25.6796C25.6796 22.695 25.6096 22.325 25.4896 22.015C25.3696 21.695 25.1796 21.455 24.9196 21.275C24.6696 21.095 24.3496 21.015 23.9496 21.015Z" fill="black"/>
<path d="M31.1598 20.165C31.9898 20.165 32.6098 20.355 33.0098 20.725C33.4098 21.095 33.6098 21.695 33.6098 22.505V27.235H32.8398L32.6398 26.205H32.5898C32.3998 26.455 32.1898 26.675 31.9798 26.845C31.7698 27.015 31.5198 27.145 31.2498 27.235C30.9698 27.325 30.6298 27.365 30.2298 27.365C29.8098 27.365 29.4298 27.295 29.0998 27.145C28.7698 26.995 28.5098 26.775 28.3298 26.475C28.1398 26.175 28.0498 25.795 28.0498 25.335C28.0498 24.645 28.3198 24.105 28.8798 23.735C29.4398 23.365 30.2698 23.155 31.3898 23.125L32.5898 23.075V22.645C32.5898 22.045 32.4598 21.625 32.1998 21.385C31.9398 21.145 31.5798 21.025 31.1098 21.025C30.7498 21.025 30.3998 21.075 30.0698 21.185C29.7398 21.295 29.4298 21.415 29.1298 21.555L28.8098 20.755C29.1198 20.595 29.4798 20.455 29.8898 20.345C30.2998 20.235 30.7098 20.165 31.1598 20.165ZM32.5698 23.805L31.5098 23.845C30.6398 23.875 30.0298 24.025 29.6798 24.275C29.3298 24.525 29.1498 24.875 29.1498 25.335C29.1498 25.735 29.2698 26.025 29.5098 26.215C29.7498 26.405 30.0698 26.505 30.4698 26.505C31.0898 26.505 31.5898 26.335 31.9898 25.995C32.3898 25.655 32.5798 25.135 32.5798 24.455V23.805H32.5698Z" fill="black"/>
<path d="M38.9198 20.145C39.0598 20.145 39.2098 20.155 39.3598 20.165C39.5098 20.175 39.6498 20.195 39.7698 20.225L39.6398 21.205C39.5298 21.175 39.3998 21.155 39.2598 21.135C39.1198 21.115 38.9898 21.105 38.8698 21.105C38.5898 21.105 38.3298 21.165 38.0798 21.275C37.8298 21.385 37.6198 21.545 37.4298 21.755C37.2398 21.965 37.0998 22.215 36.9898 22.515C36.8798 22.805 36.8298 23.135 36.8298 23.495V27.225H35.7598V20.265H36.6398L36.7498 21.545H36.7898C36.9298 21.285 37.1098 21.055 37.3098 20.835C37.5098 20.625 37.7498 20.455 38.0198 20.325C38.2898 20.215 38.5898 20.145 38.9198 20.145Z" fill="black"/>
<path d="M43.8304 27.355C43.2004 27.355 42.6504 27.225 42.1704 26.965C41.6904 26.705 41.3204 26.315 41.0504 25.785C40.7804 25.255 40.6504 24.585 40.6504 23.785C40.6504 22.945 40.7904 22.255 41.0704 21.715C41.3504 21.175 41.7404 20.785 42.2404 20.525C42.7404 20.265 43.3004 20.135 43.9304 20.135C44.2804 20.135 44.6104 20.175 44.9404 20.235C45.2604 20.305 45.5304 20.395 45.7404 20.495L45.4204 21.375C45.2104 21.295 44.9604 21.215 44.6904 21.145C44.4104 21.075 44.1504 21.045 43.9104 21.045C43.4304 21.045 43.0304 21.145 42.7104 21.355C42.3904 21.565 42.1504 21.865 41.9904 22.265C41.8304 22.665 41.7504 23.165 41.7504 23.755C41.7504 24.315 41.8304 24.795 41.9804 25.195C42.1304 25.595 42.3704 25.895 42.6704 26.105C42.9804 26.315 43.3604 26.415 43.8204 26.415C44.1904 26.415 44.5204 26.375 44.8204 26.295C45.1204 26.215 45.3804 26.125 45.6304 26.015V26.955C45.4004 27.075 45.1404 27.165 44.8504 27.225C44.5604 27.325 44.2204 27.355 43.8304 27.355Z" fill="black"/>
<path d="M48.3 17.355V20.305C48.3 20.475 48.3 20.645 48.29 20.815C48.28 20.985 48.27 21.145 48.25 21.285H48.32C48.46 21.035 48.65 20.835 48.87 20.665C49.09 20.495 49.34 20.375 49.63 20.285C49.91 20.195 50.21 20.155 50.53 20.155C51.09 20.155 51.55 20.245 51.93 20.425C52.3 20.605 52.59 20.875 52.77 21.255C52.96 21.625 53.05 22.105 53.05 22.705V27.235H52.01V22.775C52.01 22.195 51.88 21.765 51.61 21.475C51.35 21.185 50.94 21.045 50.39 21.045C49.87 21.045 49.46 21.145 49.16 21.335C48.85 21.535 48.63 21.825 48.5 22.205C48.37 22.585 48.3 23.055 48.3 23.605V27.245H47.25V17.365H48.3V17.355Z" fill="black"/>
<path d="M62.6705 22.365H65.9105V26.865C65.4205 27.035 64.9205 27.155 64.4105 27.235C63.9005 27.315 63.3205 27.355 62.6905 27.355C61.7305 27.355 60.9105 27.165 60.2505 26.775C59.5905 26.385 59.0805 25.845 58.7405 25.125C58.4005 24.415 58.2305 23.565 58.2305 22.585C58.2305 21.625 58.4205 20.785 58.8005 20.075C59.1805 19.355 59.7305 18.805 60.4405 18.405C61.1605 18.005 62.0205 17.815 63.0305 17.815C63.5505 17.815 64.0405 17.865 64.5005 17.955C64.9605 18.045 65.3905 18.185 65.7905 18.355L65.3805 19.295C65.0405 19.145 64.6605 19.025 64.2505 18.915C63.8405 18.805 63.4105 18.755 62.9705 18.755C62.2105 18.755 61.5605 18.915 61.0205 19.225C60.4805 19.535 60.0705 19.985 59.7805 20.555C59.4905 21.125 59.3505 21.805 59.3505 22.585C59.3505 23.355 59.4705 24.035 59.7205 24.605C59.9705 25.175 60.3605 25.625 60.8905 25.945C61.4205 26.265 62.1005 26.425 62.9305 26.425C63.3505 26.425 63.7105 26.405 64.0105 26.355C64.3105 26.305 64.5805 26.245 64.8305 26.185V23.345H62.6705V22.365Z" fill="black"/>
<path d="M71.1305 20.145C71.2705 20.145 71.4205 20.155 71.5705 20.165C71.7205 20.175 71.8605 20.195 71.9805 20.225L71.8505 21.205C71.7405 21.175 71.6105 21.155 71.4705 21.135C71.3305 21.115 71.2005 21.105 71.0805 21.105C70.8005 21.105 70.5405 21.165 70.2905 21.275C70.0405 21.385 69.8305 21.545 69.6405 21.755C69.4505 21.965 69.3105 22.215 69.2005 22.515C69.0905 22.805 69.0405 23.135 69.0405 23.495V27.225H67.9805V20.265H68.8605L68.9705 21.545H69.0105C69.1505 21.285 69.3305 21.055 69.5305 20.835C69.7305 20.625 69.9705 20.455 70.2405 20.325C70.5005 20.215 70.8005 20.145 71.1305 20.145Z" fill="black"/>
<path d="M79.2499 23.745C79.2499 24.315 79.1799 24.825 79.0299 25.275C78.8799 25.725 78.6699 26.105 78.3899 26.415C78.1099 26.725 77.7699 26.955 77.3799 27.125C76.9799 27.285 76.5399 27.365 76.0399 27.365C75.5699 27.365 75.1499 27.285 74.7599 27.125C74.3699 26.965 74.0399 26.725 73.7599 26.415C73.4799 26.105 73.2599 25.725 73.1099 25.275C72.9599 24.825 72.8799 24.315 72.8799 23.745C72.8799 22.985 73.0099 22.335 73.2699 21.795C73.5299 21.255 73.8999 20.855 74.3799 20.565C74.8599 20.285 75.4299 20.145 76.0999 20.145C76.7299 20.145 77.2899 20.285 77.7699 20.575C78.2499 20.855 78.6199 21.265 78.8799 21.805C79.1199 22.335 79.2499 22.985 79.2499 23.745ZM73.9599 23.745C73.9599 24.305 74.0299 24.785 74.1799 25.195C74.3299 25.605 74.5599 25.925 74.8699 26.145C75.1799 26.365 75.5799 26.485 76.0599 26.485C76.5399 26.485 76.9399 26.375 77.2499 26.145C77.5599 25.925 77.7899 25.605 77.9399 25.195C78.0899 24.785 78.1599 24.295 78.1599 23.745C78.1599 23.195 78.0899 22.715 77.9399 22.305C77.7899 21.905 77.5599 21.585 77.2499 21.365C76.9399 21.145 76.5399 21.035 76.0499 21.035C75.3299 21.035 74.7999 21.275 74.4599 21.755C74.1299 22.235 73.9599 22.895 73.9599 23.745Z" fill="black"/>
<path d="M86.7905 20.275V27.235H85.9305L85.7805 26.255H85.7205C85.5805 26.495 85.3905 26.695 85.1605 26.865C84.9305 27.035 84.6705 27.155 84.3905 27.235C84.1005 27.315 83.8005 27.355 83.4805 27.355C82.9305 27.355 82.4705 27.265 82.1005 27.085C81.7305 26.905 81.4505 26.635 81.2605 26.255C81.0705 25.885 80.9805 25.405 80.9805 24.825V20.265H82.0505V24.745C82.0505 25.325 82.1805 25.755 82.4405 26.045C82.7005 26.335 83.1005 26.475 83.6405 26.475C84.1605 26.475 84.5705 26.375 84.8705 26.185C85.1805 25.995 85.4005 25.705 85.5305 25.325C85.6705 24.945 85.7305 24.485 85.7305 23.935V20.275H86.7905Z" fill="black"/>
<path d="M92.2702 20.145C93.1402 20.145 93.8302 20.445 94.3502 21.045C94.8702 21.645 95.1202 22.535 95.1202 23.735C95.1202 24.525 95.0002 25.195 94.7602 25.725C94.5202 26.255 94.1902 26.665 93.7602 26.945C93.3302 27.215 92.8202 27.355 92.2402 27.355C91.8702 27.355 91.5502 27.305 91.2702 27.205C90.9902 27.105 90.7502 26.975 90.5502 26.815C90.3502 26.655 90.1902 26.475 90.0502 26.275H89.9702C89.9802 26.445 90.0002 26.635 90.0202 26.875C90.0402 27.105 90.0502 27.315 90.0502 27.485V30.345H88.9902V20.275H89.8602L90.0002 21.305H90.0502C90.1902 21.095 90.3502 20.895 90.5502 20.725C90.7402 20.545 90.9802 20.415 91.2602 20.305C91.5502 20.195 91.8802 20.145 92.2702 20.145ZM92.0802 21.035C91.6002 21.035 91.2102 21.125 90.9202 21.315C90.6302 21.505 90.4102 21.775 90.2802 22.145C90.1402 22.515 90.0702 22.975 90.0602 23.535V23.735C90.0602 24.325 90.1202 24.825 90.2502 25.225C90.3802 25.635 90.5902 25.945 90.8902 26.155C91.1902 26.365 91.5902 26.475 92.0902 26.475C92.5202 26.475 92.8802 26.355 93.1702 26.125C93.4602 25.895 93.6702 25.565 93.8102 25.155C93.9502 24.735 94.0202 24.255 94.0202 23.715C94.0202 22.895 93.8602 22.245 93.5402 21.755C93.2302 21.275 92.7402 21.035 92.0802 21.035Z" fill="black"/>
</svg>
