<svg version="1.1" id="Layer_1" xmlns="http://www.w3.org/2000/svg" xmlns:xlink="http://www.w3.org/1999/xlink" x="0px" y="0px"
	 width="100%" viewBox="0 0 256 256" enable-background="new 0 0 256 256" xml:space="preserve">
<path fill="#000000" opacity="1.000000" stroke="none" 
	d="
M30.000000,1.000000 
	C34.356899,1.000000 38.713799,1.000000 43.652901,1.369848 
	C45.631821,2.110040 47.155811,2.236839 48.404949,2.889604 
	C57.661716,7.726949 66.970993,12.479468 76.058708,17.621094 
	C90.746498,25.931112 105.244598,34.575607 119.884247,42.971737 
	C132.568069,50.246166 145.373611,57.308304 158.059662,64.578896 
	C175.070129,74.327881 192.110748,84.030289 208.957581,94.056534 
	C219.524109,100.345116 231.187912,104.967194 239.461456,114.822182 
	C246.577866,123.298820 246.376694,134.780258 239.584503,143.083984 
	C233.228317,150.854660 224.530746,155.072388 216.246399,159.918854 
	C201.964996,168.273697 187.460159,176.245773 173.083008,184.438004 
	C157.589691,193.266220 142.127625,202.149368 126.666489,211.033920 
	C114.677574,217.923218 102.803108,225.017548 90.711571,231.720947 
	C75.228294,240.304672 59.578205,248.587494 44.000000,257.000000 
	C39.643101,257.000000 35.286201,257.000000 30.360138,256.641754 
	C26.460972,253.983093 22.537880,252.211014 19.922009,249.274460 
	C14.123610,242.765228 13.113761,234.301315 13.091049,226.065704 
	C12.922940,165.104218 12.971897,104.142029 13.043600,43.180161 
	C13.050748,37.102802 13.598532,31.021603 14.012609,24.950176 
	C14.763793,13.935900 19.222914,5.346182 30.000000,1.000000 
z"/>
<path fill="#FFFFFF" opacity="1.000000" stroke="none" 
	d="
M44.468658,257.000000 
	C59.578205,248.587494 75.228294,240.304672 90.711571,231.720947 
	C102.803108,225.017548 114.677574,217.923218 126.666489,211.033920 
	C142.127625,202.149368 157.589691,193.266220 173.083008,184.438004 
	C187.460159,176.245773 201.964996,168.273697 216.246399,159.918854 
	C224.530746,155.072388 233.228317,150.854660 239.584503,143.083984 
	C246.376694,134.780258 246.577866,123.298820 239.461456,114.822182 
	C231.187912,104.967194 219.524109,100.345116 208.957581,94.056534 
	C192.110748,84.030289 175.070129,74.327881 158.059662,64.578896 
	C145.373611,57.308304 132.568069,50.246166 119.884247,42.971737 
	C105.244598,34.575607 90.746498,25.931112 76.058708,17.621094 
	C66.970993,12.479468 57.661716,7.726949 48.404949,2.889604 
	C47.155811,2.236839 45.631821,2.110040 44.117550,1.369848 
	C114.954430,1.000000 185.908859,1.000000 256.931641,1.000000 
	C256.931641,86.232933 256.931641,171.465942 256.931641,257.000000 
	C186.312729,257.000000 115.625023,257.000000 44.468658,257.000000 
z"/>
<path fill="#FFFFFF" opacity="1.000000" stroke="none" 
	d="
M29.531342,1.000000 
	C19.222914,5.346182 14.763793,13.935900 14.012609,24.950176 
	C13.598532,31.021603 13.050748,37.102802 13.043600,43.180161 
	C12.971897,104.142029 12.922940,165.104218 13.091049,226.065704 
	C13.113761,234.301315 14.123610,242.765228 19.922009,249.274460 
	C22.537880,252.211014 26.460972,253.983093 29.895485,256.641754 
	C20.346815,257.000000 10.693632,257.000000 1.045674,257.000000 
	C1.050900,171.666656 1.050900,86.333313 1.050900,1.000000 
	C10.422094,1.000000 19.742388,1.000000 29.531342,1.000000 
z"/>
</svg>