<svg width="22" height="22" viewBox="0 0 22 22" fill="none" xmlns="http://www.w3.org/2000/svg">
<path fill-rule="evenodd" clip-rule="evenodd" d="M0.200195 11C0.200195 5.03532 5.03552 0.199997 11.0002 0.199997C16.9649 0.199997 21.8002 5.03532 21.8002 11C21.8002 16.9647 16.9649 21.8 11.0002 21.8C5.03552 21.8 0.200195 16.9647 0.200195 11ZM11.0002 2C6.02963 2 2.0002 6.02943 2.0002 11C2.0002 15.9706 6.02963 20 11.0002 20C15.9708 20 20.0002 15.9706 20.0002 11C20.0002 6.02943 15.9708 2 11.0002 2Z" fill="#272727"/>
<path fill-rule="evenodd" clip-rule="evenodd" d="M11.1803 5.59999C11.6773 5.59999 12.0803 6.00293 12.0803 6.49999V15.68C12.0803 16.177 11.6773 16.58 11.1803 16.58C10.6832 16.58 10.2803 16.177 10.2803 15.68V6.49999C10.2803 6.00293 10.6832 5.59999 11.1803 5.59999Z" fill="#272727"/>
<path fill-rule="evenodd" clip-rule="evenodd" d="M16.7598 10.82C16.7598 11.3171 16.3568 11.72 15.8598 11.72L6.67977 11.72C6.18271 11.72 5.77977 11.3171 5.77977 10.82C5.77977 10.3229 6.18271 9.92 6.67977 9.92L15.8598 9.92C16.3568 9.92 16.7598 10.3229 16.7598 10.82Z" fill="#272727"/>
</svg>
