<?xml version="1.0" encoding="UTF-8"?>
<svg id="Laag_1" data-name="Laag 1" xmlns="http://www.w3.org/2000/svg" viewBox="0 0 128 128">
  <path d="M112,60H16c-2.21,0-4,1.79-4,4v36c0,8.82,7.18,16,16,16h72c8.82,0,16-7.18,16-16v-36c0-2.21-1.79-4-4-4ZM102.5,107.12c-1.73,1.38-4.24,1.1-5.62-.62l-8.88-11.1-8.88,11.1c-.78.98-1.96,1.55-3.23,1.5-1.25-.03-2.41-.65-3.15-1.66l-19.89-27.67-21.71,27.79c-.79,1.01-1.97,1.54-3.16,1.54-.86,0-1.73-.28-2.46-.85-1.74-1.36-2.05-3.87-.69-5.62l25-32c.78-.99,1.94-1.58,3.23-1.54,1.26.03,2.43.64,3.17,1.66l19.92,27.72,8.71-10.88c.76-.95,1.91-1.5,3.12-1.5s2.36.55,3.12,1.5l12,15c1.38,1.73,1.1,4.24-.62,5.62Z" fill="#000" stroke-width="0"/>
  <g>
    <circle cx="32" cy="32" r="4" fill="#000" stroke-width="0"/>
    <path d="M100,12H28c-8.82,0-16,7.18-16,16v20c0,2.21,1.79,4,4,4h96c2.21,0,4-1.79,4-4v-20c0-8.82-7.18-16-16-16ZM32,44c-6.62,0-12-5.38-12-12s5.38-12,12-12,12,5.38,12,12-5.38,12-12,12ZM104,32h-48c-2.21,0-4-1.79-4-4s1.79-4,4-4h48c2.21,0,4,1.79,4,4s-1.79,4-4,4Z" fill="#000" stroke-width="0"/>
  </g>
</svg>