<svg width="36" height="36" viewBox="0 0 36 36" fill="none" xmlns="http://www.w3.org/2000/svg">
<path fill-rule="evenodd" clip-rule="evenodd" d="M7.2002 17.8906C7.2002 11.9259 12.0355 7.09058 18.0002 7.09058C23.9649 7.09058 28.8002 11.9259 28.8002 17.8906C28.8002 23.8553 23.9649 28.6906 18.0002 28.6906C12.0355 28.6906 7.2002 23.8553 7.2002 17.8906ZM18.0002 8.89058C13.0296 8.89058 9.0002 12.92 9.0002 17.8906C9.0002 22.8611 13.0296 26.8906 18.0002 26.8906C22.9708 26.8906 27.0002 22.8611 27.0002 17.8906C27.0002 12.92 22.9708 8.89058 18.0002 8.89058Z" fill="white"/>
<path fill-rule="evenodd" clip-rule="evenodd" d="M11.1602 25.8706C11.1602 23.2528 13.2823 21.1306 15.9002 21.1306H20.4602C23.078 21.1306 25.2002 23.2528 25.2002 25.8706H23.4002C23.4002 24.2469 22.0839 22.9306 20.4602 22.9306H15.9002C14.2764 22.9306 12.9602 24.2469 12.9602 25.8706H11.1602Z" fill="white"/>
<path fill-rule="evenodd" clip-rule="evenodd" d="M18.1807 12.4907C16.6895 12.4907 15.4807 13.6995 15.4807 15.1907C15.4807 16.6818 16.6895 17.8907 18.1807 17.8907C19.6718 17.8907 20.8807 16.6818 20.8807 15.1907C20.8807 13.6995 19.6718 12.4907 18.1807 12.4907ZM13.6807 15.1907C13.6807 12.7054 15.6954 10.6907 18.1807 10.6907C20.6659 10.6907 22.6807 12.7054 22.6807 15.1907C22.6807 17.676 20.6659 19.6907 18.1807 19.6907C15.6954 19.6907 13.6807 17.676 13.6807 15.1907Z" fill="white"/>
</svg>
