<svg width="14" height="13" viewBox="0 0 14 13" fill="none" xmlns="http://www.w3.org/2000/svg">
<path d="M7.18008 0.25C5.45883 0.25 3.85508 0.935 2.66508 2.17875C2.40758 2.4475 2.17508 2.74125 1.96758 3.055L1.20508 2.615C1.05008 2.52625 0.860078 2.52625 0.705078 2.615C0.550078 2.70375 0.455078 2.87 0.455078 3.0475V6.8625C0.455078 7.04125 0.550078 7.20625 0.705078 7.295C0.860078 7.38375 1.05008 7.38375 1.20508 7.295L4.50883 5.3875C4.66383 5.29875 4.75883 5.1325 4.75883 4.955C4.75883 4.7775 4.66383 4.61125 4.50883 4.5225L3.75758 4.08875C4.55258 3.02125 5.82383 2.37625 7.18008 2.37625C9.52383 2.37625 11.4301 4.255 11.4301 6.56375C11.4301 8.8725 9.52383 10.7513 7.18008 10.7513C5.63258 10.7513 4.20633 9.92125 3.45758 8.585C3.39258 8.46875 3.28258 8.3825 3.15383 8.3475C3.02508 8.3125 2.88758 8.33 2.77133 8.39625L1.91883 8.88875C1.68133 9.02625 1.59883 9.32875 1.73383 9.5675C1.99258 10.0263 2.30633 10.4487 2.66508 10.8237C3.85508 12.0675 5.45883 12.7513 7.18008 12.7513C10.6263 12.7513 13.4301 9.9475 13.4301 6.50125C13.4301 3.055 10.6263 0.25 7.18008 0.25Z" fill="white"/>
</svg>
