<svg width="22" height="23" viewBox="0 0 22 23" fill="none" xmlns="http://www.w3.org/2000/svg">
<path fill-rule="evenodd" clip-rule="evenodd" d="M13.8968 1.53809C13.8086 0.714898 13.114 0.0906677 12.2861 0.0906677H9.51644C8.71705 0.0906677 8.06903 0.738698 8.06903 1.53808C8.06903 3.33067 5.9297 4.50796 4.22924 3.75497C3.47225 3.41976 2.5843 3.70926 2.17036 4.42624L0.837336 6.7351C0.423384 7.45208 0.616642 8.36581 1.28544 8.85379C2.78775 9.94991 2.78774 12.1914 1.2854 13.2876C0.616604 13.7755 0.423345 14.6893 0.837294 15.4062L2.17032 17.7151C2.58427 18.4321 3.47221 18.7216 4.22921 18.3864C5.92968 17.6334 7.87091 18.7541 8.06903 20.6033C8.15723 21.4264 8.85191 22.0507 9.67981 22.0507L12.2861 22.0507C13.114 22.0507 13.8086 21.4264 13.8968 20.6033C14.095 18.7541 16.0362 17.6334 17.7367 18.3864C18.4937 18.7216 19.3816 18.4321 19.7955 17.7151L21.1286 15.4062C21.5425 14.6893 21.3493 13.7755 20.6805 13.2876C19.1781 12.1914 19.1781 9.94991 20.6804 8.85379C21.3492 8.36581 21.5425 7.45208 21.1285 6.7351L19.7955 4.42624C19.3816 3.70926 18.4936 3.41976 17.7366 3.75497C16.0362 4.50796 14.095 3.38721 13.8968 1.53809ZM3.5901 5.46389C6.31917 6.56182 9.36534 4.80304 9.77904 1.89067H12.1272C12.5409 4.8031 15.5871 6.56183 18.3162 5.46389L19.4903 7.49745C17.1749 9.31195 17.175 12.8294 19.4903 14.6439L18.3163 16.6774C15.5872 15.5795 12.5409 17.3382 12.1272 20.2507H9.77904C9.36533 17.3383 6.31914 15.5795 3.59006 16.6774L2.41599 14.6439C4.73134 12.8294 4.73141 9.31195 2.41603 7.49745L3.5901 5.46389Z" fill="#272727"/>
<path fill-rule="evenodd" clip-rule="evenodd" d="M10.8209 8.01066C9.13095 8.01066 7.76094 9.38067 7.76094 11.0707C7.76094 12.7607 9.13095 14.1307 10.8209 14.1307C12.5109 14.1307 13.8809 12.7607 13.8809 11.0707C13.8809 9.38067 12.5109 8.01066 10.8209 8.01066ZM5.96094 11.0707C5.96094 8.38656 8.13683 6.21066 10.8209 6.21066C13.505 6.21066 15.6809 8.38656 15.6809 11.0707C15.6809 13.7548 13.505 15.9307 10.8209 15.9307C8.13683 15.9307 5.96094 13.7548 5.96094 11.0707Z" fill="#272727"/>
</svg>
