<svg xmlns="http://www.w3.org/2000/svg" viewBox="0 0 128 128">
  <path d="M115.96,16.41c.01-.13.03-.25.03-.38,0-.12-.02-.23-.03-.35,0-.12-.01-.23-.03-.35-.02-.13-.06-.26-.1-.38-.03-.1-.04-.2-.08-.29-.08-.22-.18-.44-.3-.64,0,0,0,0,0,0,0,0,0,0,0,0-.12-.2-.25-.39-.4-.57-.08-.09-.16-.17-.25-.25-.08-.08-.16-.17-.25-.25-.18-.15-.37-.28-.57-.4,0,0,0,0,0,0,0,0,0,0,0,0-.21-.12-.42-.22-.64-.3-.11-.04-.23-.06-.35-.09-.11-.03-.21-.06-.33-.08-.14-.02-.27-.03-.41-.04-.09,0-.19-.02-.28-.02-.16,0-.32.02-.48.04-.07,0-.15,0-.22.02-.23.04-.47.11-.69.19L14.6,48.25c-1.49.56-2.51,1.95-2.59,3.54-.08,1.59.78,3.08,2.21,3.79l32,16c.57.28,1.18.42,1.79.42.9,0,1.8-.3,2.52-.9l33.99-27.62-27.62,33.99c-.99,1.22-1.18,2.91-.47,4.31l16,32c.68,1.36,2.07,2.21,3.58,2.21.07,0,.14,0,.21,0,1.59-.08,2.98-1.1,3.54-2.59L115.75,17.4s0,0,0,0c.08-.22.15-.45.19-.68.02-.1.02-.21.03-.31Z" fill="#000"/>
</svg>