<svg width="24" height="24" viewBox="0 0 24 24" fill="none" xmlns="http://www.w3.org/2000/svg">
<path d="M21.7416 3.07679C21.7435 3.05241 21.7472 3.02991 21.7472 3.00554C21.7472 2.98304 21.7435 2.96241 21.7416 2.93991C21.7416 2.91741 21.7397 2.89679 21.736 2.87429C21.7322 2.84991 21.7247 2.82554 21.7172 2.80304C21.7116 2.78429 21.7097 2.76554 21.7022 2.74866C21.6872 2.70741 21.6685 2.66616 21.646 2.62866C21.6235 2.59116 21.5991 2.55554 21.571 2.52179C21.556 2.50491 21.541 2.48991 21.5241 2.47491C21.5091 2.45991 21.4941 2.44304 21.4772 2.42804C21.4435 2.39991 21.4078 2.37554 21.3703 2.35304C21.331 2.33054 21.2916 2.31179 21.2503 2.29679C21.2297 2.28929 21.2072 2.28554 21.1847 2.27991C21.1641 2.27429 21.1453 2.26866 21.1228 2.26491C21.0966 2.26116 21.0722 2.25929 21.046 2.25741C21.0291 2.25741 21.0103 2.25366 20.9935 2.25366C20.9635 2.25366 20.9335 2.25741 20.9035 2.26116C20.8903 2.26116 20.8753 2.26116 20.8622 2.26491C20.8191 2.27241 20.7741 2.28554 20.7328 2.30054L2.73659 9.04679C2.45721 9.15179 2.26596 9.41241 2.25096 9.71054C2.23596 10.0087 2.39721 10.288 2.66534 10.4212L8.66534 13.4212C8.77221 13.4737 8.88659 13.4999 9.00096 13.4999C9.16971 13.4999 9.33846 13.4437 9.47346 13.3312L15.8466 8.15241L10.6678 14.5255C10.4822 14.7543 10.4466 15.0712 10.5797 15.3337L13.5797 21.3337C13.7072 21.5887 13.9678 21.748 14.251 21.748C14.2641 21.748 14.2772 21.748 14.2903 21.748C14.5885 21.733 14.8491 21.5418 14.9541 21.2624L21.7022 3.26241C21.7172 3.22116 21.7303 3.17804 21.7378 3.13491C21.7416 3.11616 21.7416 3.09554 21.7435 3.07679H21.7416Z" fill="black"/>
</svg>
