<?xml version="1.0" encoding="UTF-8"?>
<svg id="Laag_1" data-name="Laag 1" xmlns="http://www.w3.org/2000/svg" viewBox="0 0 104 104">
  <defs>
    <style>
      .cls-1 {
        fill: #fff;
        stroke-width: 0px;
      }
    </style>
  </defs>
  <path class="cls-1" d="M51.99,64c17.64,0,32-14.35,32-32S69.63,0,51.99,0,19.99,14.35,19.99,32s14.36,32,32,32Z"/>
  <path class="cls-1" d="M89.25,63.86c-4.24-2.02-8.97-2-11.52.06h0c-7.36,5.94-16.26,9.08-25.73,9.08s-18.19-3.08-25.51-8.9c-2.8-2.22-7.61-2.31-11.97-.2-5.42,2.61-14.52,10.78-14.52,36.1,0,2.21,1.79,4,4,4h96c2.21,0,4-1.79,4-4,0-25.31-9.24-33.51-14.74-36.14h-.01Z"/>
</svg>