<?xml version="1.0" encoding="UTF-8"?>
<svg id="Laag_1" data-name="Laag 1" xmlns="http://www.w3.org/2000/svg" viewBox="0 0 128 128">
  <path d="M114.57,48.93L71.57,12.93c-1.19-1-2.85-1.22-4.26-.56-1.41.66-2.31,2.07-2.31,3.62v20.13c-21.47,1.45-37.37,14.68-46.13,38.49-6.79,18.46-6.87,36.62-6.87,37.38h0v.04h0v.02c.03,2.18,1.81,3.94,4,3.94h0c2.21,0,4-1.79,4-3.99,0-1.8.74-41.64,45-43.9v19.9c0,1.55.9,2.97,2.31,3.62,1.41.66,3.07.44,4.26-.56l43-36c.91-.76,1.43-1.88,1.43-3.07s-.52-2.31-1.43-3.07Z" fill="#000" stroke-width="0"/>
</svg>