<?xml version="1.0" encoding="UTF-8"?>
<svg id="Laag_1" data-name="Laag 1" xmlns="http://www.w3.org/2000/svg" viewBox="0 0 128 128">
  <path d="M114.83,98.83c1.56-1.56,1.56-4.09,0-5.66l-28.08-28.08,27.04-13.52c1.44-.72,2.31-2.24,2.2-3.85-.11-1.61-1.18-3-2.71-3.51L16.78,11.71c-1.44-.48-3.03-.11-4.11.96-1.07,1.07-1.45,2.67-.96,4.11l32.5,96.5c.52,1.53,1.9,2.6,3.51,2.71.09,0,.19,0,.28,0,1.51,0,2.9-.85,3.58-2.21l13.52-27.04,28.08,28.08c1.56,1.56,4.09,1.56,5.66,0l16-16Z" fill="#000" stroke-width="0"/>
</svg>